<svg xmlns="http://www.w3.org/2000/svg" viewBox="0 0 512 512" width="512" height="512">
  <defs>
    <linearGradient id="bg" x1="0" y1="0" x2="0.3" y2="1">
      <stop offset="0%" stop-color="#0EA5E9"/>
      <stop offset="100%" stop-color="#0369A1"/>
    </linearGradient>
    <linearGradient id="pageL" x1="0" y1="0" x2="1" y2="0">
      <stop offset="0%" stop-color="#FFFFFF"/>
      <stop offset="100%" stop-color="#E0F2FE"/>
    </linearGradient>
    <linearGradient id="pageR" x1="1" y1="0" x2="0" y2="0">
      <stop offset="0%" stop-color="#FFFFFF"/>
      <stop offset="100%" stop-color="#BAE6FD"/>
    </linearGradient>
  </defs>

  <rect width="512" height="512" rx="108" fill="url(#bg)"/>

  <g transform="translate(256, 275)">
    <path d="M0,-95 C-50,-105 -115,-95 -140,-75 L-140,85 C-115,65 -50,55 0,65 Z"
          fill="url(#pageL)"/>
    <path d="M0,-95 C50,-105 115,-95 140,-75 L140,85 C115,65 50,55 0,65 Z"
          fill="url(#pageR)"/>

    <g stroke="#0369A1" stroke-opacity="0.15" stroke-width="2.5" stroke-linecap="round">
      <line x1="-120" y1="-35" x2="-18" y2="-48"/>
      <line x1="-120" y1="-10" x2="-18" y2="-23"/>
      <line x1="-120" y1="15" x2="-18" y2="2"/>
      <line x1="-120" y1="40" x2="-18" y2="27"/>
      <line x1="120" y1="-35" x2="18" y2="-48"/>
      <line x1="120" y1="-10" x2="18" y2="-23"/>
      <line x1="120" y1="15" x2="18" y2="2"/>
      <line x1="120" y1="40" x2="18" y2="27"/>
    </g>
  </g>

  <g transform="translate(256, 128)" fill="white">
    <path d="M0,-16 L4.5,-6 L16,0 L4.5,6 L0,16 L-4.5,6 L-16,0 L-4.5,-6 Z"/>
  </g>
</svg>